<svg xmlns="http://www.w3.org/2000/svg" viewBox="0 0 44 44" role="img" aria-label="GitHub">
  <circle cx="22" cy="22" r="22" fill="#181717" />
  <path fill="#FFFFFF" fill-rule="evenodd" d="M22 9.5c-7.1 0-12.8 5.8-12.8 13a12.9 12.9 0 0 0 8.7 12.2c.6.1.9-.3.9-.6v-2.2c-3.6.8-4.3-1.6-4.3-1.6-.6-1.5-1.4-1.9-1.4-1.9-1.2-.8.1-.8.1-.8 1.3.1 2 .1 3.1 1.3.7 1.2 1.9 1.7 3.2 1.3.1-.9.4-1.5.8-1.8-2.8-.3-5.8-1.4-5.8-6.4 0-1.4.5-2.6 1.3-3.5-.1-.3-.6-1.6.1-3.4 0 0 1.1-.3 3.5 1.3a12.2 12.2 0 0 1 6.4 0c2.4-1.6 3.5-1.3 3.5-1.3.7 1.8.2 3.1.1 3.4.8.9 1.3 2.1 1.3 3.5 0 5-3 6.1-5.9 6.4.5.4.9 1.2.9 2.4v3.7c0 .3.2.8.9.6a12.9 12.9 0 0 0 8.7-12.2c0-7.2-5.7-13-12.8-13Z" clip-rule="evenodd" />
</svg>
